<?xml version="1.0" standalone="no"?>
<!DOCTYPE svg PUBLIC "-//W3C//DTD SVG 20010904//EN"
 "http://www.w3.org/TR/2001/REC-SVG-20010904/DTD/svg10.dtd">
<svg version="1.0" xmlns="http://www.w3.org/2000/svg"
 width="512.000000pt" height="512.000000pt" viewBox="0 0 512.000000 512.000000"
 preserveAspectRatio="xMidYMid meet">
<metadata>
Created by potrace 1.11, written by Peter Selinger 2001-2013
</metadata>
<g transform="translate(0.000000,512.000000) scale(0.100000,-0.100000)"
fill="#000000" stroke="none">
<path d="M2309 4745 c-250 -40 -410 -106 -658 -269 -262 -173 -437 -389 -516
-637 -84 -266 -80 -583 11 -939 91 -351 290 -808 549 -1255 54 -93 118 -204
141 -245 190 -338 337 -517 475 -583 59 -29 72 -40 113 -103 106 -161 228
-288 331 -342 45 -24 61 -27 155 -27 97 0 110 2 165 30 69 35 199 159 287 275
138 183 315 483 503 855 161 317 200 411 219 517 8 48 25 109 36 135 12 27 37
112 56 191 38 159 41 227 25 522 l-9 155 -81 245 c-83 249 -173 450 -260 580
-20 30 -54 85 -74 122 -21 37 -41 70 -46 72 -5 3 -49 65 -97 138 -202 302
-433 466 -769 545 -92 21 -140 26 -290 29 -122 2 -208 -1 -266 -11z m413
-1083 c84 -41 150 -108 191 -192 30 -61 32 -72 32 -170 0 -98 -2 -109 -32
-171 -39 -80 -120 -159 -200 -197 -52 -24 -69 -27 -168 -27 -104 0 -113 2
-172 32 -330 173 -289 639 67 754 14 5 68 7 120 6 85 -2 103 -5 162 -35z"/>
</g>
</svg>
